<mxfile host="app.diagrams.net" agent="Mozilla/5.0 (Windows NT 10.0; Win64; x64) AppleWebKit/537.36 (KHTML, like Gecko) Chrome/131.0.0.0 Safari/537.36" version="24.9.1">
  <diagram name="Page-1" id="2a216829-ef6e-dabb-86c1-c78162f3ba2b">
    <mxGraphModel dx="1615" dy="869" grid="1" gridSize="10" guides="1" tooltips="1" connect="1" arrows="1" fold="1" page="1" pageScale="1" pageWidth="1920" pageHeight="1200" background="none" math="0" shadow="0">
      <root>
        <mxCell id="0" />
        <mxCell id="1" parent="0" />
        <mxCell id="0TXziBT0qv74xzK5-7dz-12" value="" style="group;movable=0;resizable=0;rotatable=0;deletable=0;editable=0;locked=1;connectable=0;" parent="1" vertex="1" connectable="0">
          <mxGeometry x="112" y="250" width="3028" height="870" as="geometry" />
        </mxCell>
        <mxCell id="0TXziBT0qv74xzK5-7dz-6" value="" style="group;movable=1;resizable=1;rotatable=1;deletable=1;editable=1;locked=0;connectable=1;" parent="0TXziBT0qv74xzK5-7dz-12" vertex="1" connectable="0">
          <mxGeometry x="5.485507246376814" width="3022.514492753623" height="870" as="geometry" />
        </mxCell>
        <mxCell id="0TXziBT0qv74xzK5-7dz-1" value="" style="shape=internalStorage;whiteSpace=wrap;html=1;backgroundOutline=1;" parent="0TXziBT0qv74xzK5-7dz-6" vertex="1">
          <mxGeometry x="3.657004830917874" width="3017.028985507246" height="870" as="geometry" />
        </mxCell>
        <mxCell id="0TXziBT0qv74xzK5-7dz-4" value="" style="endArrow=none;html=1;rounded=0;" parent="0TXziBT0qv74xzK5-7dz-6" edge="1">
          <mxGeometry width="50" height="50" relative="1" as="geometry">
            <mxPoint y="270" as="sourcePoint" />
            <mxPoint x="3022.514492753623" y="270" as="targetPoint" />
          </mxGeometry>
        </mxCell>
        <mxCell id="0TXziBT0qv74xzK5-7dz-5" value="" style="endArrow=none;html=1;rounded=0;" parent="0TXziBT0qv74xzK5-7dz-6" edge="1">
          <mxGeometry width="50" height="50" relative="1" as="geometry">
            <mxPoint x="1.828502415458937" y="550" as="sourcePoint" />
            <mxPoint x="3022.514492753623" y="550" as="targetPoint" />
          </mxGeometry>
        </mxCell>
        <mxCell id="0TXziBT0qv74xzK5-7dz-93" value="" style="group" parent="0TXziBT0qv74xzK5-7dz-6" vertex="1" connectable="0">
          <mxGeometry x="-1.3479710144927601" y="80.0049275362319" width="30.00000000000001" height="694.7101449275362" as="geometry" />
        </mxCell>
        <mxCell id="0TXziBT0qv74xzK5-7dz-8" value="Ученик" style="text;strokeColor=none;align=center;fillColor=none;html=1;verticalAlign=middle;whiteSpace=wrap;rounded=0;rotation=-90;" parent="0TXziBT0qv74xzK5-7dz-93" vertex="1">
          <mxGeometry x="-39.85507246376811" y="39.855072463768096" width="109.71014492753622" height="30" as="geometry" />
        </mxCell>
        <mxCell id="0TXziBT0qv74xzK5-7dz-9" value="Система" style="text;strokeColor=none;align=center;fillColor=none;html=1;verticalAlign=middle;whiteSpace=wrap;rounded=0;rotation=-90;" parent="0TXziBT0qv74xzK5-7dz-93" vertex="1">
          <mxGeometry x="-39.85507246376811" y="304.8550724637681" width="109.71014492753622" height="30" as="geometry" />
        </mxCell>
        <mxCell id="0TXziBT0qv74xzK5-7dz-10" value="Преподаватель" style="text;strokeColor=none;align=center;fillColor=none;html=1;verticalAlign=middle;whiteSpace=wrap;rounded=0;rotation=-90;" parent="0TXziBT0qv74xzK5-7dz-93" vertex="1">
          <mxGeometry x="-39.85507246376811" y="624.8550724637681" width="109.71014492753622" height="30" as="geometry" />
        </mxCell>
        <mxCell id="0TXziBT0qv74xzK5-7dz-11" value="" style="group;movable=0;resizable=0;rotatable=0;deletable=0;editable=0;locked=1;connectable=0;" parent="1" vertex="1" connectable="0">
          <mxGeometry x="112" y="250" width="1656" height="870" as="geometry" />
        </mxCell>
        <mxCell id="0TXziBT0qv74xzK5-7dz-7" value="" style="points=[[0.145,0.145,0],[0.5,0,0],[0.855,0.145,0],[1,0.5,0],[0.855,0.855,0],[0.5,1,0],[0.145,0.855,0],[0,0.5,0]];shape=mxgraph.bpmn.event;html=1;verticalLabelPosition=bottom;labelBackgroundColor=#ffffff;verticalAlign=top;align=center;perimeter=ellipsePerimeter;outlineConnect=0;aspect=fixed;outline=standard;symbol=general;" parent="1" vertex="1">
          <mxGeometry x="170" y="360" width="40" height="40" as="geometry" />
        </mxCell>
        <mxCell id="0TXziBT0qv74xzK5-7dz-13" value="Открыть урок курса" style="points=[[0.25,0,0],[0.5,0,0],[0.75,0,0],[1,0.25,0],[1,0.5,0],[1,0.75,0],[0.75,1,0],[0.5,1,0],[0.25,1,0],[0,0.75,0],[0,0.5,0],[0,0.25,0]];shape=mxgraph.bpmn.task;whiteSpace=wrap;rectStyle=rounded;size=10;html=1;container=1;expand=0;collapsible=0;taskMarker=user;" parent="1" vertex="1">
          <mxGeometry x="240" y="345" width="100" height="70" as="geometry" />
        </mxCell>
        <mxCell id="0TXziBT0qv74xzK5-7dz-18" style="edgeStyle=orthogonalEdgeStyle;rounded=0;orthogonalLoop=1;jettySize=auto;html=1;exitX=0.5;exitY=1;exitDx=0;exitDy=0;exitPerimeter=0;" parent="1" source="0TXziBT0qv74xzK5-7dz-16" target="0TXziBT0qv74xzK5-7dz-17" edge="1">
          <mxGeometry relative="1" as="geometry" />
        </mxCell>
        <mxCell id="0TXziBT0qv74xzK5-7dz-16" value="Нажать на файл с заданием" style="points=[[0.25,0,0],[0.5,0,0],[0.75,0,0],[1,0.25,0],[1,0.5,0],[1,0.75,0],[0.75,1,0],[0.5,1,0],[0.25,1,0],[0,0.75,0],[0,0.5,0],[0,0.25,0]];shape=mxgraph.bpmn.task;whiteSpace=wrap;rectStyle=rounded;size=10;html=1;container=1;expand=0;collapsible=0;taskMarker=user;" parent="1" vertex="1">
          <mxGeometry x="500" y="345" width="100" height="70" as="geometry" />
        </mxCell>
        <mxCell id="0TXziBT0qv74xzK5-7dz-17" value="Начать скачивание файла на ПК ученика" style="points=[[0.25,0,0],[0.5,0,0],[0.75,0,0],[1,0.25,0],[1,0.5,0],[1,0.75,0],[0.75,1,0],[0.5,1,0],[0.25,1,0],[0,0.75,0],[0,0.5,0],[0,0.25,0]];shape=mxgraph.bpmn.task;whiteSpace=wrap;rectStyle=rounded;size=10;html=1;container=1;expand=0;collapsible=0;taskMarker=service;" parent="1" vertex="1">
          <mxGeometry x="500" y="600" width="100" height="70" as="geometry" />
        </mxCell>
        <mxCell id="0TXziBT0qv74xzK5-7dz-22" value="" style="shape=mxgraph.bpmn.data;labelPosition=center;verticalLabelPosition=bottom;align=center;verticalAlign=top;size=15;html=1;fillColor=#FFD966;" parent="1" vertex="1">
          <mxGeometry x="560" y="445" width="30" height="40" as="geometry" />
        </mxCell>
        <mxCell id="0TXziBT0qv74xzK5-7dz-23" style="edgeStyle=orthogonalEdgeStyle;rounded=0;orthogonalLoop=1;jettySize=auto;html=1;exitX=0.75;exitY=0;exitDx=0;exitDy=0;exitPerimeter=0;entryX=0.5;entryY=1;entryDx=0;entryDy=0;entryPerimeter=0;dashed=1;" parent="1" source="0TXziBT0qv74xzK5-7dz-17" target="0TXziBT0qv74xzK5-7dz-22" edge="1">
          <mxGeometry relative="1" as="geometry" />
        </mxCell>
        <mxCell id="0TXziBT0qv74xzK5-7dz-25" value="&amp;nbsp; ДЗ для&amp;nbsp;&lt;br&gt;&amp;nbsp; выполнения" style="text;align=left;verticalAlign=middle;resizable=0;points=[];autosize=1;strokeColor=none;fillColor=none;spacing=1;html=1;spacingTop=0;fontSize=10;" parent="1" vertex="1">
          <mxGeometry x="600" y="452" width="80" height="30" as="geometry" />
        </mxCell>
        <mxCell id="0TXziBT0qv74xzK5-7dz-29" style="edgeStyle=orthogonalEdgeStyle;rounded=0;orthogonalLoop=1;jettySize=auto;html=1;exitX=0;exitY=0.5;exitDx=0;exitDy=0;exitPerimeter=0;endArrow=none;endFill=0;" parent="1" source="0TXziBT0qv74xzK5-7dz-28" edge="1">
          <mxGeometry relative="1" as="geometry">
            <mxPoint x="590" y="465" as="targetPoint" />
          </mxGeometry>
        </mxCell>
        <mxCell id="0TXziBT0qv74xzK5-7dz-28" value="" style="strokeWidth=2;html=1;shape=mxgraph.flowchart.annotation_1;align=left;pointerEvents=1;" parent="1" vertex="1">
          <mxGeometry x="600" y="450" width="10" height="30" as="geometry" />
        </mxCell>
        <mxCell id="0TXziBT0qv74xzK5-7dz-31" style="edgeStyle=orthogonalEdgeStyle;rounded=0;orthogonalLoop=1;jettySize=auto;html=1;exitX=1;exitY=0.5;exitDx=0;exitDy=0;exitPerimeter=0;entryX=0;entryY=0.5;entryDx=0;entryDy=0;entryPerimeter=0;" parent="1" source="0TXziBT0qv74xzK5-7dz-7" target="0TXziBT0qv74xzK5-7dz-13" edge="1">
          <mxGeometry relative="1" as="geometry" />
        </mxCell>
        <mxCell id="0TXziBT0qv74xzK5-7dz-32" style="edgeStyle=orthogonalEdgeStyle;rounded=0;orthogonalLoop=1;jettySize=auto;html=1;exitX=1;exitY=0.5;exitDx=0;exitDy=0;exitPerimeter=0;entryX=0;entryY=0.5;entryDx=0;entryDy=0;entryPerimeter=0;" parent="1" source="0TXziBT0qv74xzK5-7dz-13" edge="1">
          <mxGeometry relative="1" as="geometry">
            <mxPoint x="370" y="380" as="targetPoint" />
          </mxGeometry>
        </mxCell>
        <mxCell id="0TXziBT0qv74xzK5-7dz-33" style="edgeStyle=orthogonalEdgeStyle;rounded=0;orthogonalLoop=1;jettySize=auto;html=1;exitX=1;exitY=0.5;exitDx=0;exitDy=0;exitPerimeter=0;entryX=0;entryY=0.5;entryDx=0;entryDy=0;entryPerimeter=0;" parent="1" target="0TXziBT0qv74xzK5-7dz-16" edge="1">
          <mxGeometry relative="1" as="geometry">
            <mxPoint x="470" y="380" as="sourcePoint" />
          </mxGeometry>
        </mxCell>
        <mxCell id="0TXziBT0qv74xzK5-7dz-57" style="edgeStyle=orthogonalEdgeStyle;rounded=0;orthogonalLoop=1;jettySize=auto;html=1;exitX=0.5;exitY=1;exitDx=0;exitDy=0;exitPerimeter=0;dashed=1;dashPattern=1 2;" parent="1" source="0TXziBT0qv74xzK5-7dz-37" target="0TXziBT0qv74xzK5-7dz-56" edge="1">
          <mxGeometry relative="1" as="geometry" />
        </mxCell>
        <mxCell id="0TXziBT0qv74xzK5-7dz-37" value="Выполнить задание в файле" style="points=[[0.25,0,0],[0.5,0,0],[0.75,0,0],[1,0.25,0],[1,0.5,0],[1,0.75,0],[0.75,1,0],[0.5,1,0],[0.25,1,0],[0,0.75,0],[0,0.5,0],[0,0.25,0]];shape=mxgraph.bpmn.task;whiteSpace=wrap;rectStyle=rounded;size=10;html=1;container=1;expand=0;collapsible=0;taskMarker=manual;" parent="1" vertex="1">
          <mxGeometry x="690" y="345" width="100" height="70" as="geometry" />
        </mxCell>
        <mxCell id="0TXziBT0qv74xzK5-7dz-39" value="Просмотреть материал к уроку" style="points=[[0.25,0,0],[0.5,0,0],[0.75,0,0],[1,0.25,0],[1,0.5,0],[1,0.75,0],[0.75,1,0],[0.5,1,0],[0.25,1,0],[0,0.75,0],[0,0.5,0],[0,0.25,0]];shape=mxgraph.bpmn.task;whiteSpace=wrap;rectStyle=rounded;size=10;html=1;container=1;expand=0;collapsible=0;taskMarker=manual;" parent="1" vertex="1">
          <mxGeometry x="370" y="345" width="100" height="70" as="geometry" />
        </mxCell>
        <mxCell id="0TXziBT0qv74xzK5-7dz-42" style="edgeStyle=orthogonalEdgeStyle;rounded=0;orthogonalLoop=1;jettySize=auto;html=1;exitX=1;exitY=0.5;exitDx=0;exitDy=0;exitPerimeter=0;entryX=0;entryY=0.5;entryDx=0;entryDy=0;entryPerimeter=0;" parent="1" source="0TXziBT0qv74xzK5-7dz-13" target="0TXziBT0qv74xzK5-7dz-39" edge="1">
          <mxGeometry relative="1" as="geometry" />
        </mxCell>
        <mxCell id="0TXziBT0qv74xzK5-7dz-43" style="edgeStyle=orthogonalEdgeStyle;rounded=0;orthogonalLoop=1;jettySize=auto;html=1;exitX=1;exitY=0.5;exitDx=0;exitDy=0;exitPerimeter=0;entryX=0;entryY=0.5;entryDx=0;entryDy=0;entryPerimeter=0;" parent="1" source="0TXziBT0qv74xzK5-7dz-39" target="0TXziBT0qv74xzK5-7dz-16" edge="1">
          <mxGeometry relative="1" as="geometry" />
        </mxCell>
        <mxCell id="0TXziBT0qv74xzK5-7dz-44" value="Выбрать опцию &quot;Добавить файл&quot; в окне урока" style="points=[[0.25,0,0],[0.5,0,0],[0.75,0,0],[1,0.25,0],[1,0.5,0],[1,0.75,0],[0.75,1,0],[0.5,1,0],[0.25,1,0],[0,0.75,0],[0,0.5,0],[0,0.25,0]];shape=mxgraph.bpmn.task;whiteSpace=wrap;rectStyle=rounded;size=10;html=1;container=1;expand=0;collapsible=0;taskMarker=user;" parent="1" vertex="1">
          <mxGeometry x="820" y="345" width="100" height="70" as="geometry" />
        </mxCell>
        <mxCell id="0TXziBT0qv74xzK5-7dz-45" value="Открыть окно Проводник" style="points=[[0.25,0,0],[0.5,0,0],[0.75,0,0],[1,0.25,0],[1,0.5,0],[1,0.75,0],[0.75,1,0],[0.5,1,0],[0.25,1,0],[0,0.75,0],[0,0.5,0],[0,0.25,0]];shape=mxgraph.bpmn.task;whiteSpace=wrap;rectStyle=rounded;size=10;html=1;container=1;expand=0;collapsible=0;taskMarker=service;" parent="1" vertex="1">
          <mxGeometry x="820" y="600" width="100" height="70" as="geometry" />
        </mxCell>
        <mxCell id="0TXziBT0qv74xzK5-7dz-46" style="edgeStyle=orthogonalEdgeStyle;rounded=0;orthogonalLoop=1;jettySize=auto;html=1;exitX=1;exitY=0.5;exitDx=0;exitDy=0;exitPerimeter=0;entryX=0;entryY=0.5;entryDx=0;entryDy=0;entryPerimeter=0;" parent="1" source="0TXziBT0qv74xzK5-7dz-37" target="0TXziBT0qv74xzK5-7dz-44" edge="1">
          <mxGeometry relative="1" as="geometry" />
        </mxCell>
        <mxCell id="0TXziBT0qv74xzK5-7dz-47" style="edgeStyle=orthogonalEdgeStyle;rounded=0;orthogonalLoop=1;jettySize=auto;html=1;exitX=0.5;exitY=1;exitDx=0;exitDy=0;exitPerimeter=0;entryX=0.5;entryY=0;entryDx=0;entryDy=0;entryPerimeter=0;" parent="1" source="0TXziBT0qv74xzK5-7dz-44" target="0TXziBT0qv74xzK5-7dz-45" edge="1">
          <mxGeometry relative="1" as="geometry" />
        </mxCell>
        <mxCell id="0TXziBT0qv74xzK5-7dz-48" value="Выбрать необходимый файл" style="points=[[0.25,0,0],[0.5,0,0],[0.75,0,0],[1,0.25,0],[1,0.5,0],[1,0.75,0],[0.75,1,0],[0.5,1,0],[0.25,1,0],[0,0.75,0],[0,0.5,0],[0,0.25,0]];shape=mxgraph.bpmn.task;whiteSpace=wrap;rectStyle=rounded;size=10;html=1;container=1;expand=0;collapsible=0;taskMarker=user;" parent="1" vertex="1">
          <mxGeometry x="950" y="345" width="100" height="70" as="geometry" />
        </mxCell>
        <mxCell id="0TXziBT0qv74xzK5-7dz-49" style="edgeStyle=orthogonalEdgeStyle;rounded=0;orthogonalLoop=1;jettySize=auto;html=1;exitX=1;exitY=0.5;exitDx=0;exitDy=0;exitPerimeter=0;entryX=0.5;entryY=1;entryDx=0;entryDy=0;entryPerimeter=0;" parent="1" source="0TXziBT0qv74xzK5-7dz-45" target="0TXziBT0qv74xzK5-7dz-48" edge="1">
          <mxGeometry relative="1" as="geometry" />
        </mxCell>
        <mxCell id="0TXziBT0qv74xzK5-7dz-65" style="edgeStyle=orthogonalEdgeStyle;rounded=0;orthogonalLoop=1;jettySize=auto;html=1;exitX=0.5;exitY=1;exitDx=0;exitDy=0;exitPerimeter=0;entryX=0.5;entryY=0;entryDx=0;entryDy=0;dashed=1;dashPattern=1 2;" parent="1" source="0TXziBT0qv74xzK5-7dz-50" target="0TXziBT0qv74xzK5-7dz-55" edge="1">
          <mxGeometry relative="1" as="geometry" />
        </mxCell>
        <mxCell id="0TXziBT0qv74xzK5-7dz-50" value="Загрузить файл на платформу&amp;nbsp;" style="points=[[0.25,0,0],[0.5,0,0],[0.75,0,0],[1,0.25,0],[1,0.5,0],[1,0.75,0],[0.75,1,0],[0.5,1,0],[0.25,1,0],[0,0.75,0],[0,0.5,0],[0,0.25,0]];shape=mxgraph.bpmn.task;whiteSpace=wrap;rectStyle=rounded;size=10;html=1;container=1;expand=0;collapsible=0;taskMarker=service;" parent="1" vertex="1">
          <mxGeometry x="1030" y="600" width="100" height="70" as="geometry" />
        </mxCell>
        <mxCell id="0TXziBT0qv74xzK5-7dz-51" style="edgeStyle=orthogonalEdgeStyle;rounded=0;orthogonalLoop=1;jettySize=auto;html=1;exitX=1;exitY=0.5;exitDx=0;exitDy=0;exitPerimeter=0;entryX=0.5;entryY=0;entryDx=0;entryDy=0;entryPerimeter=0;" parent="1" source="0TXziBT0qv74xzK5-7dz-48" target="0TXziBT0qv74xzK5-7dz-50" edge="1">
          <mxGeometry relative="1" as="geometry" />
        </mxCell>
        <mxCell id="0TXziBT0qv74xzK5-7dz-52" value="Отправить уведомление преподавателю по email" style="points=[[0.25,0,0],[0.5,0,0],[0.75,0,0],[1,0.25,0],[1,0.5,0],[1,0.75,0],[0.75,1,0],[0.5,1,0],[0.25,1,0],[0,0.75,0],[0,0.5,0],[0,0.25,0]];shape=mxgraph.bpmn.task;whiteSpace=wrap;rectStyle=rounded;size=10;html=1;container=1;expand=0;collapsible=0;taskMarker=service;" parent="1" vertex="1">
          <mxGeometry x="1160" y="600" width="100" height="70" as="geometry" />
        </mxCell>
        <mxCell id="0TXziBT0qv74xzK5-7dz-53" style="edgeStyle=orthogonalEdgeStyle;rounded=0;orthogonalLoop=1;jettySize=auto;html=1;exitX=1;exitY=0.5;exitDx=0;exitDy=0;exitPerimeter=0;entryX=0;entryY=0.5;entryDx=0;entryDy=0;entryPerimeter=0;" parent="1" source="0TXziBT0qv74xzK5-7dz-50" target="0TXziBT0qv74xzK5-7dz-52" edge="1">
          <mxGeometry relative="1" as="geometry" />
        </mxCell>
        <mxCell id="0TXziBT0qv74xzK5-7dz-55" value="" style="shape=datastore;html=1;labelPosition=center;verticalLabelPosition=bottom;align=center;verticalAlign=top;" parent="1" vertex="1">
          <mxGeometry x="1050" y="710" width="60" height="60" as="geometry" />
        </mxCell>
        <mxCell id="0TXziBT0qv74xzK5-7dz-56" value="" style="shape=mxgraph.bpmn.data;labelPosition=center;verticalLabelPosition=bottom;align=center;verticalAlign=top;size=15;html=1;fillColor=#97D077;" parent="1" vertex="1">
          <mxGeometry x="725" y="449" width="30" height="41" as="geometry" />
        </mxCell>
        <mxCell id="0TXziBT0qv74xzK5-7dz-60" value="&lt;font&gt;&amp;nbsp;Выполненное&lt;/font&gt;&lt;div&gt;&lt;font&gt;&amp;nbsp;ДЗ&lt;/font&gt;&lt;/div&gt;" style="text;html=1;align=left;verticalAlign=middle;resizable=0;points=[];autosize=1;strokeColor=none;fillColor=none;spacing=1;fontSize=10;" parent="1" vertex="1">
          <mxGeometry x="768" y="451" width="90" height="40" as="geometry" />
        </mxCell>
        <mxCell id="0TXziBT0qv74xzK5-7dz-61" style="edgeStyle=orthogonalEdgeStyle;rounded=0;orthogonalLoop=1;jettySize=auto;html=1;exitX=0;exitY=0.5;exitDx=0;exitDy=0;exitPerimeter=0;endArrow=none;endFill=0;" parent="1" source="0TXziBT0qv74xzK5-7dz-62" edge="1">
          <mxGeometry relative="1" as="geometry">
            <mxPoint x="755" y="471" as="targetPoint" />
          </mxGeometry>
        </mxCell>
        <mxCell id="0TXziBT0qv74xzK5-7dz-62" value="" style="strokeWidth=2;html=1;shape=mxgraph.flowchart.annotation_1;align=left;pointerEvents=1;" parent="1" vertex="1">
          <mxGeometry x="765" y="456" width="10" height="30" as="geometry" />
        </mxCell>
        <mxCell id="0TXziBT0qv74xzK5-7dz-64" style="edgeStyle=orthogonalEdgeStyle;rounded=0;orthogonalLoop=1;jettySize=auto;html=1;exitX=0.5;exitY=1;exitDx=0;exitDy=0;exitPerimeter=0;dashed=1;dashPattern=1 2;" parent="1" source="0TXziBT0qv74xzK5-7dz-56" edge="1">
          <mxGeometry relative="1" as="geometry">
            <mxPoint x="1069" y="600" as="targetPoint" />
          </mxGeometry>
        </mxCell>
        <mxCell id="0TXziBT0qv74xzK5-7dz-66" style="edgeStyle=orthogonalEdgeStyle;rounded=0;orthogonalLoop=1;jettySize=auto;html=1;exitX=1;exitY=0.5;exitDx=0;exitDy=0;exitPerimeter=0;entryX=0;entryY=0.5;entryDx=0;entryDy=0;entryPerimeter=0;" parent="1" source="0TXziBT0qv74xzK5-7dz-17" target="0TXziBT0qv74xzK5-7dz-37" edge="1">
          <mxGeometry relative="1" as="geometry">
            <Array as="points">
              <mxPoint x="670" y="635" />
              <mxPoint x="670" y="380" />
            </Array>
          </mxGeometry>
        </mxCell>
        <mxCell id="0TXziBT0qv74xzK5-7dz-74" value="Получить уведомление" style="points=[[0.25,0,0],[0.5,0,0],[0.75,0,0],[1,0.25,0],[1,0.5,0],[1,0.75,0],[0.75,1,0],[0.5,1,0],[0.25,1,0],[0,0.75,0],[0,0.5,0],[0,0.25,0]];shape=mxgraph.bpmn.task;whiteSpace=wrap;rectStyle=rounded;size=10;html=1;container=1;expand=0;collapsible=0;taskMarker=user;" parent="1" vertex="1">
          <mxGeometry x="1160" y="910" width="100" height="70" as="geometry" />
        </mxCell>
        <mxCell id="0TXziBT0qv74xzK5-7dz-75" value="Перейти на экран урока" style="points=[[0.25,0,0],[0.5,0,0],[0.75,0,0],[1,0.25,0],[1,0.5,0],[1,0.75,0],[0.75,1,0],[0.5,1,0],[0.25,1,0],[0,0.75,0],[0,0.5,0],[0,0.25,0]];shape=mxgraph.bpmn.task;whiteSpace=wrap;rectStyle=rounded;size=10;html=1;container=1;expand=0;collapsible=0;taskMarker=user;" parent="1" vertex="1">
          <mxGeometry x="1290" y="910" width="100" height="70" as="geometry" />
        </mxCell>
        <mxCell id="0TXziBT0qv74xzK5-7dz-76" style="edgeStyle=orthogonalEdgeStyle;rounded=0;orthogonalLoop=1;jettySize=auto;html=1;exitX=0.5;exitY=1;exitDx=0;exitDy=0;exitPerimeter=0;entryX=0.5;entryY=0;entryDx=0;entryDy=0;entryPerimeter=0;" parent="1" source="0TXziBT0qv74xzK5-7dz-78" target="0TXziBT0qv74xzK5-7dz-74" edge="1">
          <mxGeometry relative="1" as="geometry" />
        </mxCell>
        <mxCell id="0TXziBT0qv74xzK5-7dz-77" value="" style="edgeStyle=orthogonalEdgeStyle;rounded=0;orthogonalLoop=1;jettySize=auto;html=1;exitX=0.5;exitY=1;exitDx=0;exitDy=0;exitPerimeter=0;entryX=0.5;entryY=0;entryDx=0;entryDy=0;entryPerimeter=0;endArrow=none;endFill=0;" parent="1" source="0TXziBT0qv74xzK5-7dz-52" target="0TXziBT0qv74xzK5-7dz-78" edge="1">
          <mxGeometry relative="1" as="geometry">
            <mxPoint x="1210" y="670" as="sourcePoint" />
            <mxPoint x="1210" y="910" as="targetPoint" />
          </mxGeometry>
        </mxCell>
        <mxCell id="0TXziBT0qv74xzK5-7dz-78" value="" style="points=[[0.145,0.145,0],[0.5,0,0],[0.855,0.145,0],[1,0.5,0],[0.855,0.855,0],[0.5,1,0],[0.145,0.855,0],[0,0.5,0]];shape=mxgraph.bpmn.event;html=1;verticalLabelPosition=bottom;labelBackgroundColor=#ffffff;verticalAlign=top;align=center;perimeter=ellipsePerimeter;outlineConnect=0;aspect=fixed;outline=standard;symbol=message;" parent="1" vertex="1">
          <mxGeometry x="1190" y="750" width="40" height="40" as="geometry" />
        </mxCell>
        <mxCell id="0TXziBT0qv74xzK5-7dz-83" value="Нажать на файл с заданием" style="points=[[0.25,0,0],[0.5,0,0],[0.75,0,0],[1,0.25,0],[1,0.5,0],[1,0.75,0],[0.75,1,0],[0.5,1,0],[0.25,1,0],[0,0.75,0],[0,0.5,0],[0,0.25,0]];shape=mxgraph.bpmn.task;whiteSpace=wrap;rectStyle=rounded;size=10;html=1;container=1;expand=0;collapsible=0;taskMarker=user;" parent="1" vertex="1">
          <mxGeometry x="1420" y="910" width="100" height="70" as="geometry" />
        </mxCell>
        <mxCell id="0TXziBT0qv74xzK5-7dz-84" value="Начать скачивание файла на ПК ученика" style="points=[[0.25,0,0],[0.5,0,0],[0.75,0,0],[1,0.25,0],[1,0.5,0],[1,0.75,0],[0.75,1,0],[0.5,1,0],[0.25,1,0],[0,0.75,0],[0,0.5,0],[0,0.25,0]];shape=mxgraph.bpmn.task;whiteSpace=wrap;rectStyle=rounded;size=10;html=1;container=1;expand=0;collapsible=0;taskMarker=service;" parent="1" vertex="1">
          <mxGeometry x="1420" y="600" width="100" height="70" as="geometry" />
        </mxCell>
        <mxCell id="0TXziBT0qv74xzK5-7dz-85" value="" style="shape=mxgraph.bpmn.data;labelPosition=center;verticalLabelPosition=bottom;align=center;verticalAlign=top;size=15;html=1;fillColor=#97D077;" parent="1" vertex="1">
          <mxGeometry x="1490" y="830" width="30" height="40" as="geometry" />
        </mxCell>
        <mxCell id="0TXziBT0qv74xzK5-7dz-86" style="edgeStyle=orthogonalEdgeStyle;rounded=0;orthogonalLoop=1;jettySize=auto;html=1;exitX=0.773;exitY=1.009;exitDx=0;exitDy=0;exitPerimeter=0;entryX=0;entryY=0;entryDx=7.5;entryDy=0;entryPerimeter=0;dashed=1;" parent="1" source="0TXziBT0qv74xzK5-7dz-84" target="0TXziBT0qv74xzK5-7dz-85" edge="1">
          <mxGeometry relative="1" as="geometry">
            <mxPoint x="1335" y="970" as="sourcePoint" />
          </mxGeometry>
        </mxCell>
        <mxCell id="0TXziBT0qv74xzK5-7dz-88" style="edgeStyle=orthogonalEdgeStyle;rounded=0;orthogonalLoop=1;jettySize=auto;html=1;exitX=0;exitY=0.5;exitDx=0;exitDy=0;exitPerimeter=0;endArrow=none;endFill=0;" parent="1" source="0TXziBT0qv74xzK5-7dz-89" edge="1">
          <mxGeometry relative="1" as="geometry">
            <mxPoint x="1520" y="850" as="targetPoint" />
          </mxGeometry>
        </mxCell>
        <mxCell id="0TXziBT0qv74xzK5-7dz-89" value="" style="strokeWidth=2;html=1;shape=mxgraph.flowchart.annotation_1;align=left;pointerEvents=1;" parent="1" vertex="1">
          <mxGeometry x="1530" y="835" width="10" height="30" as="geometry" />
        </mxCell>
        <mxCell id="0TXziBT0qv74xzK5-7dz-90" style="edgeStyle=orthogonalEdgeStyle;rounded=0;orthogonalLoop=1;jettySize=auto;html=1;exitX=1;exitY=0.5;exitDx=0;exitDy=0;exitPerimeter=0;entryX=0;entryY=0.5;entryDx=0;entryDy=0;entryPerimeter=0;" parent="1" source="0TXziBT0qv74xzK5-7dz-74" target="0TXziBT0qv74xzK5-7dz-75" edge="1">
          <mxGeometry relative="1" as="geometry" />
        </mxCell>
        <mxCell id="0TXziBT0qv74xzK5-7dz-91" style="edgeStyle=orthogonalEdgeStyle;rounded=0;orthogonalLoop=1;jettySize=auto;html=1;exitX=1;exitY=0.5;exitDx=0;exitDy=0;exitPerimeter=0;entryX=0;entryY=0.5;entryDx=0;entryDy=0;entryPerimeter=0;" parent="1" source="0TXziBT0qv74xzK5-7dz-75" target="0TXziBT0qv74xzK5-7dz-83" edge="1">
          <mxGeometry relative="1" as="geometry" />
        </mxCell>
        <mxCell id="0TXziBT0qv74xzK5-7dz-92" style="edgeStyle=orthogonalEdgeStyle;rounded=0;orthogonalLoop=1;jettySize=auto;html=1;exitX=0.5;exitY=0;exitDx=0;exitDy=0;exitPerimeter=0;entryX=0.5;entryY=1;entryDx=0;entryDy=0;entryPerimeter=0;" parent="1" source="0TXziBT0qv74xzK5-7dz-83" target="0TXziBT0qv74xzK5-7dz-84" edge="1">
          <mxGeometry relative="1" as="geometry" />
        </mxCell>
        <mxCell id="0TXziBT0qv74xzK5-7dz-94" value="&lt;font&gt;&amp;nbsp;Выполненное&lt;/font&gt;&lt;div&gt;&lt;font&gt;&amp;nbsp;ДЗ&lt;/font&gt;&lt;/div&gt;" style="text;html=1;align=left;verticalAlign=middle;resizable=0;points=[];autosize=1;strokeColor=none;fillColor=none;spacing=1;fontSize=10;" parent="1" vertex="1">
          <mxGeometry x="1533" y="830" width="90" height="40" as="geometry" />
        </mxCell>
        <mxCell id="fekRPHt_hgVmX_1bzjKm-5" value="Прислать в чат с учеником комментарии к ДЗ" style="points=[[0.25,0,0],[0.5,0,0],[0.75,0,0],[1,0.25,0],[1,0.5,0],[1,0.75,0],[0.75,1,0],[0.5,1,0],[0.25,1,0],[0,0.75,0],[0,0.5,0],[0,0.25,0]];shape=mxgraph.bpmn.task;whiteSpace=wrap;rectStyle=rounded;size=10;html=1;container=1;expand=0;collapsible=0;taskMarker=user;" vertex="1" parent="1">
          <mxGeometry x="1760" y="910" width="110" height="70" as="geometry" />
        </mxCell>
        <mxCell id="fekRPHt_hgVmX_1bzjKm-6" value="Проверить ДЗ" style="points=[[0.25,0,0],[0.5,0,0],[0.75,0,0],[1,0.25,0],[1,0.5,0],[1,0.75,0],[0.75,1,0],[0.5,1,0],[0.25,1,0],[0,0.75,0],[0,0.5,0],[0,0.25,0]];shape=mxgraph.bpmn.task;whiteSpace=wrap;rectStyle=rounded;size=10;html=1;container=1;expand=0;collapsible=0;taskMarker=manual;" vertex="1" parent="1">
          <mxGeometry x="1623" y="910" width="100" height="70" as="geometry" />
        </mxCell>
        <mxCell id="fekRPHt_hgVmX_1bzjKm-7" style="edgeStyle=orthogonalEdgeStyle;rounded=0;orthogonalLoop=1;jettySize=auto;html=1;exitX=1;exitY=0.5;exitDx=0;exitDy=0;exitPerimeter=0;entryX=0.5;entryY=0;entryDx=0;entryDy=0;entryPerimeter=0;" edge="1" parent="1" source="0TXziBT0qv74xzK5-7dz-84" target="fekRPHt_hgVmX_1bzjKm-6">
          <mxGeometry relative="1" as="geometry" />
        </mxCell>
        <mxCell id="fekRPHt_hgVmX_1bzjKm-8" style="edgeStyle=orthogonalEdgeStyle;rounded=0;orthogonalLoop=1;jettySize=auto;html=1;exitX=1;exitY=0.5;exitDx=0;exitDy=0;exitPerimeter=0;entryX=0;entryY=0.5;entryDx=0;entryDy=0;entryPerimeter=0;" edge="1" parent="1" source="fekRPHt_hgVmX_1bzjKm-6" target="fekRPHt_hgVmX_1bzjKm-5">
          <mxGeometry relative="1" as="geometry" />
        </mxCell>
        <mxCell id="fekRPHt_hgVmX_1bzjKm-9" value="Отправить уведомление о новом сообщении" style="points=[[0.25,0,0],[0.5,0,0],[0.75,0,0],[1,0.25,0],[1,0.5,0],[1,0.75,0],[0.75,1,0],[0.5,1,0],[0.25,1,0],[0,0.75,0],[0,0.5,0],[0,0.25,0]];shape=mxgraph.bpmn.task;whiteSpace=wrap;rectStyle=rounded;size=10;html=1;container=1;expand=0;collapsible=0;taskMarker=service;" vertex="1" parent="1">
          <mxGeometry x="1765" y="610" width="100" height="70" as="geometry" />
        </mxCell>
        <mxCell id="fekRPHt_hgVmX_1bzjKm-10" style="edgeStyle=orthogonalEdgeStyle;rounded=0;orthogonalLoop=1;jettySize=auto;html=1;exitX=0.5;exitY=0;exitDx=0;exitDy=0;exitPerimeter=0;entryX=0.5;entryY=1;entryDx=0;entryDy=0;entryPerimeter=0;" edge="1" parent="1" source="fekRPHt_hgVmX_1bzjKm-5" target="fekRPHt_hgVmX_1bzjKm-9">
          <mxGeometry relative="1" as="geometry" />
        </mxCell>
        <mxCell id="fekRPHt_hgVmX_1bzjKm-32" style="edgeStyle=orthogonalEdgeStyle;rounded=0;orthogonalLoop=1;jettySize=auto;html=1;exitX=1;exitY=0.5;exitDx=0;exitDy=0;exitPerimeter=0;" edge="1" parent="1" source="fekRPHt_hgVmX_1bzjKm-17" target="fekRPHt_hgVmX_1bzjKm-31">
          <mxGeometry relative="1" as="geometry" />
        </mxCell>
        <mxCell id="fekRPHt_hgVmX_1bzjKm-17" value="Отметить урок как пройденный" style="points=[[0.25,0,0],[0.5,0,0],[0.75,0,0],[1,0.25,0],[1,0.5,0],[1,0.75,0],[0.75,1,0],[0.5,1,0],[0.25,1,0],[0,0.75,0],[0,0.5,0],[0,0.25,0]];shape=mxgraph.bpmn.task;whiteSpace=wrap;rectStyle=rounded;size=10;html=1;container=1;expand=0;collapsible=0;taskMarker=user;" vertex="1" parent="1">
          <mxGeometry x="2020" y="835" width="110" height="70" as="geometry" />
        </mxCell>
        <mxCell id="fekRPHt_hgVmX_1bzjKm-21" value="" style="points=[[0.25,0.25,0],[0.5,0,0],[0.75,0.25,0],[1,0.5,0],[0.75,0.75,0],[0.5,1,0],[0.25,0.75,0],[0,0.5,0]];shape=mxgraph.bpmn.gateway2;html=1;verticalLabelPosition=bottom;labelBackgroundColor=#ffffff;verticalAlign=top;align=center;perimeter=rhombusPerimeter;outlineConnect=0;outline=none;symbol=none;gwType=exclusive;" vertex="1" parent="1">
          <mxGeometry x="1925" y="925" width="40" height="40" as="geometry" />
        </mxCell>
        <mxCell id="fekRPHt_hgVmX_1bzjKm-22" style="edgeStyle=orthogonalEdgeStyle;rounded=0;orthogonalLoop=1;jettySize=auto;html=1;exitX=1;exitY=0.5;exitDx=0;exitDy=0;exitPerimeter=0;entryX=0;entryY=0.5;entryDx=0;entryDy=0;entryPerimeter=0;" edge="1" parent="1" source="fekRPHt_hgVmX_1bzjKm-5" target="fekRPHt_hgVmX_1bzjKm-21">
          <mxGeometry relative="1" as="geometry" />
        </mxCell>
        <mxCell id="fekRPHt_hgVmX_1bzjKm-23" value="Попросить ученика переделать и прислать вновь" style="points=[[0.25,0,0],[0.5,0,0],[0.75,0,0],[1,0.25,0],[1,0.5,0],[1,0.75,0],[0.75,1,0],[0.5,1,0],[0.25,1,0],[0,0.75,0],[0,0.5,0],[0,0.25,0]];shape=mxgraph.bpmn.task;whiteSpace=wrap;rectStyle=rounded;size=10;html=1;container=1;expand=0;collapsible=0;taskMarker=user;" vertex="1" parent="1">
          <mxGeometry x="2020" y="990" width="110" height="70" as="geometry" />
        </mxCell>
        <mxCell id="fekRPHt_hgVmX_1bzjKm-24" style="edgeStyle=orthogonalEdgeStyle;rounded=0;orthogonalLoop=1;jettySize=auto;html=1;exitX=0.5;exitY=0;exitDx=0;exitDy=0;exitPerimeter=0;entryX=0;entryY=0.5;entryDx=0;entryDy=0;entryPerimeter=0;" edge="1" parent="1" source="fekRPHt_hgVmX_1bzjKm-21" target="fekRPHt_hgVmX_1bzjKm-17">
          <mxGeometry relative="1" as="geometry" />
        </mxCell>
        <mxCell id="fekRPHt_hgVmX_1bzjKm-25" style="edgeStyle=orthogonalEdgeStyle;rounded=0;orthogonalLoop=1;jettySize=auto;html=1;exitX=0.5;exitY=1;exitDx=0;exitDy=0;exitPerimeter=0;entryX=0;entryY=0.5;entryDx=0;entryDy=0;entryPerimeter=0;" edge="1" parent="1" source="fekRPHt_hgVmX_1bzjKm-21" target="fekRPHt_hgVmX_1bzjKm-23">
          <mxGeometry relative="1" as="geometry" />
        </mxCell>
        <mxCell id="fekRPHt_hgVmX_1bzjKm-26" value="Задание зачтено" style="text;strokeColor=none;align=center;fillColor=none;html=1;verticalAlign=middle;whiteSpace=wrap;rounded=0;" vertex="1" parent="1">
          <mxGeometry x="1949.5" y="832" width="60" height="30" as="geometry" />
        </mxCell>
        <mxCell id="fekRPHt_hgVmX_1bzjKm-28" value="Задание не зачтено" style="text;strokeColor=none;align=center;fillColor=none;html=1;verticalAlign=middle;whiteSpace=wrap;rounded=0;" vertex="1" parent="1">
          <mxGeometry x="1937" y="1032" width="81" height="30" as="geometry" />
        </mxCell>
        <mxCell id="fekRPHt_hgVmX_1bzjKm-31" value="" style="points=[[0.25,0.25,0],[0.5,0,0],[0.75,0.25,0],[1,0.5,0],[0.75,0.75,0],[0.5,1,0],[0.25,0.75,0],[0,0.5,0]];shape=mxgraph.bpmn.gateway2;html=1;verticalLabelPosition=bottom;labelBackgroundColor=#ffffff;verticalAlign=top;align=center;perimeter=rhombusPerimeter;outlineConnect=0;outline=none;symbol=none;gwType=exclusive;" vertex="1" parent="1">
          <mxGeometry x="2180" y="925" width="40" height="40" as="geometry" />
        </mxCell>
        <mxCell id="fekRPHt_hgVmX_1bzjKm-34" style="edgeStyle=orthogonalEdgeStyle;rounded=0;orthogonalLoop=1;jettySize=auto;html=1;exitX=1;exitY=0.5;exitDx=0;exitDy=0;exitPerimeter=0;entryX=0.5;entryY=1;entryDx=0;entryDy=0;entryPerimeter=0;" edge="1" parent="1" source="fekRPHt_hgVmX_1bzjKm-23" target="fekRPHt_hgVmX_1bzjKm-31">
          <mxGeometry relative="1" as="geometry" />
        </mxCell>
        <mxCell id="fekRPHt_hgVmX_1bzjKm-35" value="Отправить уведомление о новом статусе урока или сообщение от преподавателя" style="points=[[0.25,0,0],[0.5,0,0],[0.75,0,0],[1,0.25,0],[1,0.5,0],[1,0.75,0],[0.75,1,0],[0.5,1,0],[0.25,1,0],[0,0.75,0],[0,0.5,0],[0,0.25,0]];shape=mxgraph.bpmn.task;whiteSpace=wrap;rectStyle=rounded;size=10;html=1;container=1;expand=0;collapsible=0;taskMarker=service;" vertex="1" parent="1">
          <mxGeometry x="2250" y="610" width="170" height="70" as="geometry" />
        </mxCell>
        <mxCell id="fekRPHt_hgVmX_1bzjKm-36" style="edgeStyle=orthogonalEdgeStyle;rounded=0;orthogonalLoop=1;jettySize=auto;html=1;exitX=1;exitY=0.5;exitDx=0;exitDy=0;exitPerimeter=0;entryX=0.5;entryY=1;entryDx=0;entryDy=0;entryPerimeter=0;" edge="1" parent="1" source="fekRPHt_hgVmX_1bzjKm-31" target="fekRPHt_hgVmX_1bzjKm-35">
          <mxGeometry relative="1" as="geometry" />
        </mxCell>
      </root>
    </mxGraphModel>
  </diagram>
</mxfile>
